<svg version="1.2" xmlns="http://www.w3.org/2000/svg" viewBox="0 0 1958 704" width="1958" height="704">
	<title>Agua es Vida Logo Vektor-svg</title>
	<style>
		.s0 { fill: #010101 } 
		.s1 { fill: #2d8dcd } 
		.s2 { fill: #6ab648 } 
		.s3 { fill: #010000 } 
		.s4 { fill: #6bb648 } 
		.s5 { fill: #28336d } 
		.s6 { fill: #3e467f } 
		.s7 { fill: #4c558d } 
		.s8 { fill: #4e88c6 } 
		.s9 { fill: #596ba1 } 
		.s10 { fill: #6eb74b } 
		.s11 { fill: #69acdf } 
		.s12 { fill: #a8d7f5 } 
		.s13 { fill: #3c65ae } 
		.s14 { fill: #568fcb } 
		.s15 { fill: #2454a1 } 
		.s16 { fill: #ffffff } 
		.s17 { fill: #92d0f2 } 
		.s18 { fill: #5ca0d7 } 
		.s19 { fill: #8ec4ec } 
		.s20 { fill: #6cb0e1 } 
		.s21 { fill: #c0ddf3 } 
		.s22 { fill: #98caee } 
		.s23 { fill: #86cbf1 } 
		.s24 { fill: #5c98d2 } 
		.s25 { fill: #4c7abd } 
		.s26 { fill: #070c11 } 
		.s27 { fill: #070e13 } 
		.s28 { fill: #070f15 } 
		.s29 { fill: #070d13 } 
		.s30 { fill: #05090d } 
		.s31 { fill: #030609 } 
		.s32 { fill: #020305 } 
		.s33 { fill: #101d25 } 
		.s34 { fill: #0c1921 } 
		.s35 { fill: #bee2f4 } 
		.s36 { fill: #e6ecec } 
		.s37 { fill: #081015 } 
		.s38 { fill: #f0f0f0 } 
		.s39 { fill: #cbe1f0 } 
		.s40 { fill: #68abdd } 
		.s41 { fill: #9ad4f3 } 
	</style>
	<g id="Ebene_1-2">
		<g id="Layer">
			<path id="Layer" class="s0" d="m1955.2 446.3c2.4 0.3 2.4 2.1 2.4 3.9 0 11.3-0.1 22.5 0.1 33.7 0 3.7-1.3 5-4.9 4.7-2-0.3-4-0.1-6-0.1h-1338.8c-3.3 0-6.5 0.1-9.8 0.2-1.6 1.5-3.5 1.9-5.6 2-2.4 0.1-4.9 0.1-7.3 0q-1.2 0.1-2.4 0c-2.5 0-5 0.1-7.6 0.1-1.8 0-3.5 0-5.4 0.1-9.7 0.5-19.4 0.3-29.2 0.1-3.8-0.1-8.2-0.8-8.5-5.5-0.9-12.9-2.3-25.8 1-38.6q1-1.2 2.4-1.7c20.5-0.6 40.9-1.9 61.3 0.7 2.7 0.3 5.4 0.1 8.2 0.1q670.2-0.1 1340.4 0c3.2 0 6.5-0.4 9.7 0.3z"/>
			<path id="Layer" class="s1" d="m1081.3 183.1c0-7.3 0-14.7 0-22 0-7 0.1-7.1 6.9-7.1 6 0 12 0.2 18-0.1 4-0.1 5.4 1.6 5 5.3-0.1 1 0 2 0 3 0 60.7 0 121.4 0.1 182.1 0 11.8-0.9 23.5-4.1 34.9-7.7 26.7-25.6 43.8-51.7 51.6-28.8 8.6-57.8 7.3-85.9-3.6-20.8-8-35.1-23.3-43.7-43.9-0.7-1.6-1.4-3.2-0.8-5.5 9.4 0 18.8 0 28.3-0.1 2.6 0 4 1.1 5.2 3.4 8.6 17 23.6 24.1 41.6 26.8 13.3 2 26.4 1 39.4-1.7 22.5-4.9 35.6-19 40-41.4 2.9-14.6 1.3-29.4 1.7-44-2.4-0.9-2.9 0.9-3.7 1.9-12.1 15.5-27.8 24.8-46.9 28.7-22.5 4.5-44.4 2.9-64.9-7.6-28.9-14.8-45.4-39.1-51-70.8-3.4-19.7-2.2-39.2 4.2-58.4 12.6-37.6 46-62.4 85.8-63.6 11.2-0.3 22.4 0.1 33.3 3.2 15.4 4.4 28.1 12.8 38.2 25.1 1.1 1.3 2.3 2.6 3.5 3.9 0.1 0.1 0.4 0 1.5-0.1z"/>
			<path id="Layer" class="s1" d="m897.2 353.7c-9.7 0-18.9-0.2-28.1 0.1-4 0.1-5.1-2.4-6.3-5.3-6.7-16.1-13.5-32.2-20.2-48.3-2.7-6.4-5.5-12.8-8-19.3-1.1-2.7-2.6-4.1-5.6-3.9-1.7 0.1-3.5 0-5.2 0-38.2 0-76.5 0.2-114.7-0.1-6.1-0.1-8.6 1.9-10.8 7.4-8.6 21.2-17.8 42.3-26.5 63.5-1.8 4.3-4 6.2-8.8 6-8.5-0.4-17-0.1-25.7-0.1-0.6-3.5 1.3-6.1 2.4-8.7q52.4-123.7 105-247.4c4.6-10.9 2.5-8.7 13.4-8.9 7.2-0.1 14.5 0.2 21.7-0.1 4.4-0.1 6.6 1.2 8.4 5.5 10.5 25.6 21.5 51 32.3 76.5q36.8 86.8 73.7 173.6c1.1 2.8 2.7 5.3 3 9.5z"/>
			<path id="Layer" class="s1" d="m1545 323.8c-1.3-0.2-1.8 0.7-2.4 1.5-13.6 17.8-31.7 27.6-53.8 30.4-24.6 3.1-47.9-0.4-68.7-14.5-21.4-14.6-34.5-35.2-39.9-60.3-5.5-25.2-4.4-50.3 6.5-74 15.9-34.6 42.9-53.5 81.1-55.8 13.3-0.8 26.4 0.1 39.1 4.7 13.5 4.9 24.6 13.1 33.7 24.1 1.2 1.4 1.8 3.5 5.1 3.8v-20.1c0-2 0-4 0-5.9-0.1-2.5 1.1-3.7 3.6-3.7q11.2 0.1 22.5 0c2.9 0 3.9 1.5 3.8 4.2-0.1 1.5 0 3 0 4.5v182.8c0 8.6 0.7 8.2-8 8.2-5.7 0-11.5-0.2-17.2 0-3.7 0.2-4.9-1.3-4.8-4.8 0.2-7.5 0.1-15 0-22.5 0-0.9 0.5-2-0.6-2.6z"/>
			<path id="Layer" class="s1" d="m1305.9 324.1c-4.8 4.9-9.4 10.2-14.4 14.9-17 15.8-37.4 19.6-59.8 17.2-42.3-4.6-69-42-70-79-1.1-39-0.3-77.9-0.6-116.9 0-6.2 0.1-6.2 6.2-6.3q8.7-0.1 17.3 0c6.2 0.1 6.3 0.1 6.4 6.1 0 3 0 6 0 9 0 31.8 0 63.5 0 95.2 0 7.2 0.4 14.5 2 21.5 5.5 24.7 20.7 39.4 45.6 43.2 31.8 4.7 58.8-14.7 66.5-41.2 2.1-7.3 2.5-14.7 2.5-22.2q0-51.3 0-102.7c0-9.5-1-8.9 8.8-8.9 5.5 0 11 0.1 16.5 0 3.6-0.2 4.9 1.4 4.6 4.9-0.1 1.2 0 2.5 0 3.7q0 91 0 182.1c0 10 0.8 8.9-8.6 9-5.5 0-11-0.2-16.5 0-3.5 0.1-4.9-1.1-4.8-4.7 0.1-8 0-16 0-23.9q-0.9-0.5-1.7-1z"/>
			<path id="Layer" class="s2" d="m1336.6 626.6c-3 4.1-5.1 7.2-7.4 10-4.9 6.2-10.6 11.2-18.7 12.8-12 2.3-20.6-2.8-24.2-14.4-0.5-1.7-1-3.3-1.7-5.5-3.3 3.6-6.2 6.9-9.3 10.1-4.2 4.4-9.3 7.4-15.4 8.6-8.1 1.6-14.4-2.1-16.6-10.1-0.9-3-1.3-6.2-1.9-9.6-2.7 1.7-3.6 4.4-5.3 6.5-4.3 5.6-9.2 10.6-15.9 13.3-13.5 5.5-25.3-0.3-29-14.3-0.4-1.7-0.7-3.5-1-5.2-3 0.5-3.6 3.3-5.1 5.1-4.4 5.1-9 10.1-15.1 13.2-5.3 2.7-10.8 3.8-16.7 2.4-5.6-1.4-8.6-4.7-9.1-10.4-0.4-4 0-7.9 0.6-12.7-3.2 2.2-5.7 4.2-8.5 5.7-7.1 4-14.8 6.1-23 4.1-4-1-6.9-0.3-10.1 2.6-8.9 8.1-19.4 12.1-31.6 10.7-9.3-1.2-14.2-6.3-14.8-15.8-0.5-9.4 1.5-18.4 4.1-27.3 3.4-12 7.4-23.8 11.3-35.7 1.9-5.8 9.9-7.9 14.6-4 2 1.6 1.3 3.4 0.6 5.3-2.9 8.8-5.8 17.6-8.6 26.4-2.7 8.5-5.1 17.2-5.8 26.2-0.3 4.5-1.1 9.6 3.3 12.3 4.6 2.8 9.2 0.1 13.2-2.6 3.3-2.2 6.5-4.2 4.2-9.5-1.3-3.3 2.1-7.3 5.9-6.8 3.7 0.5 4.9-1.4 6.2-3.8 7.1-13.1 11.3-27.1 13-41.9 0.7-6.7 4.1-9.1 10.5-7.6 4.7 1.1 6.3 3 5.5 8.1-2.5 16.9-6.8 33.2-16 47.9-1.3 2.1-2.6 4.2-4.2 6.9 6.2 2.2 11.9 1.1 17.2-1.6 10.6-5.4 16.6-14.9 20-25.9 3-9.5 5.5-19.2 8.2-28.8 2-6.7 7.9-8.8 13.9-5.3 3.3 2 2.2 4.6 1.4 7.2-3.2 11.5-6.6 23-9.7 34.6-2.1 7.4-4.3 14.9-5.2 22.6-0.3 2.7-1.3 5.9 1.4 7.6 2.9 1.9 5.8 0.1 8.4-1.5 5.2-3.2 9.1-7.7 12.7-12.5 4.3-5.9 8-12.1 10.8-18.8 2.4-5.5 4.9-11 8.3-15.9 11.9-17.3 28-26 49.3-23.3 3.9 0.5 4.1-1.7 4.8-4 4.3-13.5 8.9-27 13.9-40.3 0.7-1.8 1.3-3.7 2.1-5.6 2.2-5.1 3.1-5.6 8.4-5.2 7.5 0.6 8.9 3 6.3 10.2-10.4 28.4-20.1 57-26.4 86.6-1.5 7.1-2.8 14.2-2.4 21.5 0.1 2.8 0.3 5.9 2.9 7.4 3 1.7 5.8 0 8.2-1.9 9.4-7.3 15.1-17.2 19.5-27.9 4.6-11.6 11.1-21.8 20.5-30 14.7-12.8 31.5-16.5 50.3-10.9 4.5 1.4 8.7 3.8 12.3 6.9 2.3 1.9 2.9 4.1 0.9 6.5-2 2.2-3.8 5-7.5 3.3-1.3-0.7-2.5-1.6-3.8-2.4-14.6-8.3-29.3-6.6-41.1 5.3-10.5 10.6-17 23.3-17.7 38.5-0.2 5.2-0.5 11.2 5.5 13.6 5.4 2.2 9.6-1.6 13.2-5.1 11.2-10.8 17.8-24.5 22.7-39.1 0.5-1.4 0.9-2.8 1.3-4.3 2-6.4 9.1-8.2 13.9-3.5 2 1.9 1.3 4.1 0.7 6.2-1.6 6.3-3.5 12.5-5.1 18.8-1.5 6.3-3.4 12.6-3.5 19.1-0.1 7.4 3.5 9.5 10 6 4.7-2.6 8.2-6.5 11.5-10.6q7.3-9.1 11.9-19.8c0.8-2 1.5-4.6 4.8-3 2.6 1.2 2.8 3.2 1.7 5.5-5.8 12.3-12.3 24.1-22.8 33.1-4.2 3.6-9 6.2-14.6 7.2-8.7 1.6-14.7-2.3-16.3-11-0.5-2.9-0.4-5.9-0.7-10.5z"/>
			<path id="Layer" class="s3" d="m145.6 487.6c-45.7 0-91.3 0-137 0-9.8 0-8.1 0.8-8.2-8.4-0.1-7-0.1-14 0-21 0-5.4 0-5.5 5.8-5.5 8.9 0 17.9 0 26.9 0q53.5 0 107 0c2.7 0 5.5-0.2 8.2-0.3 1.6-1 3.2-1.7 5.1-1.7 2.3-0.4 4.6-0.1 6.9-0.2 15.1-0.5 30.2-0.2 45.4-0.2 2.7 0 5.4 0.2 7.7 2 3 11.7 2.7 23.4 0.2 35.1-2.2 2-5 1.9-7.7 1.9-13.8-0.2-27.6 0.4-41.4 0.3-4.1-0.5-8.2-0.2-12.4-0.3-2.3 0-4.6-0.2-6.5-1.7z"/>
			<path id="Layer" class="s4" d="m969.9 568.4c-5.3 5.1-8.8 10-11.9 15-5.2 8.3-9.5 17-13.4 26-3.9 8.9-8.8 17.3-15.8 24.3-13.6 13.9-30 19.2-49.1 15.4-14.8-3-24-13.6-25.3-28.6-2.2-25.4 15.4-50.8 39-56 5.7-1.3 11.3-1.3 17 0.4 10.7 3.3 16.4 12.9 14 23.9-3.1 14.5-16.1 24.6-32.9 25.7-6.5 0.4-12.9-1.1-19.3-1.9-3.6 13.4 4.6 24.8 18.8 26 12.5 1 23-3.7 32.1-11.8 6.9-6.1 11.9-13.5 15.6-21.8 5.1-11.7 10.9-23 18.5-33.3q4.8-6.7 11-12.2c3.1-2.7 6.6-4.6 10.8-4.7 5.4-0.2 8.6 3.8 6.4 8.7-2.2 4.9-0.4 9.4 0.5 13.9 1.6 8.3 5 16.2 7.7 24.2 2.8 8.4 4.6 16.8 2.4 25.9 2.8 1.5 5.3 0.6 7.8-0.4 5.6-2.3 9.6-6.4 12.9-11.1 2.6-3.7 4.7-7.7 6.5-11.8 0.7-1.6 1.6-3.3 4-2.1 1.9 1 3.5 2.4 2.3 4.7-1.9 4.1-3.8 8.2-6.2 11.9-6.7 10.3-15.4 17.8-28.4 18.2-2.7 0.1-3.9 1.8-5.4 3.4-6.7 7.3-15.4 10.4-25 9.9-16.7-0.9-21.6-16.3-18.5-27.3 0.9-2.9 2.8-4.1 5.5-4.3 2.7-0.1 5.2 0.4 4.3 4.2-0.7 3.3-0.2 6.5 1.1 9.5 1.9 4.1 5.4 5.9 9.6 6 4.2 0.1 7.8-1.7 10.5-4.9 1-1.2 0.5-2.3 0-3.5-1.8-4.3-1.9-8.3 2.9-10.9 2.3-1.3 1.8-3.2 1.6-5.2-0.8-5.7-2.6-11.2-4.5-16.6-3.1-8.9-6.2-17.9-7.1-28.7q0-0.1 0-0.1z"/>
			<path id="Layer" class="s5" d="m145.6 487.6q3 0 5.9-0.1 0.8 0.7 0.9 1.7c0.3 2.8 1 5.5 1.1 8.3 2.9 48.8 20 91.7 54 127.5 33.3 35 74 56.8 121.5 64.5 44.3 7.3 87.7 2.3 129.1-15.6 49.7-21.5 87.9-55.6 112.4-104.2 11.6-23 17.5-47.8 19.8-73.4 0.3-2.7-0.1-5.5 2.2-7.6q2.9 0 5.7 0c-1.7 32-8.7 62.6-23.6 91.3-22.5 43.3-56.2 75.2-99.4 97.3-37.5 19-77.3 27.7-119.3 25.8-82.6-3.6-160.4-52.6-192.9-130.2-9.7-23.3-15.2-47.5-16.2-72.7-0.2-4.2 0.1-8.5-1.2-12.6z"/>
			<path id="Layer" class="s6" d="m1955.2 446.3c-2.4 0.9-4.9 0.4-7.4 0.4q-672 0.1-1344 0-30 0.1-59.9 0c-2.8 0-5.5-0.2-8.2-0.3-0.2-1.8 1.2-2.3 2.5-2.8 14.9-1.5 29.9-0.5 44.9-0.7 6.7 0.7 5.9-3.8 5.2-7.8-2.9-18-6.7-35.8-11.9-53.3-11.7-40.2-30.1-77.6-49-114.7-1.7-3.4-5-6.6-2.4-11 1.2 0.2 1.5 1.2 2 2 21.9 40.9 42 82.7 55.6 127.3 5.6 18.2 9.9 36.6 12.6 55.4 0.5 3.7 1.6 5.4 5.4 5.1 2.3-0.2 4.5 0 6.8 0q669.8 0 1339.7 0c2.7 0 5.4-0.5 8.1 0.4z"/>
			<path id="Layer" class="s7" d="m153.3 452.5q-2.5-0.1-5-0.1c3.1-29.2 10.6-57.4 20.3-84.9 15.1-43 35.5-83.6 57-123.5 35.7-66.3 71.7-132.5 104.2-200.4 4.7-9.9 10.3-19.4 16.9-28.2 2.3-3 4.7-5.9 7.4-8.4 9.2-8.8 19.1-8.9 28.6-0.5 5.5 4.8 9.7 10.7 13.5 17 12.3 20.2 23.1 41.3 33.8 62.4q4.4 8.7 8.7 17.4-0.8 0.8-2 0.7c-3.4-1.4-4.3-4.7-5.7-7.5-11.5-22.5-23.2-44.9-36.4-66.4-3.7-6.1-7.5-12.3-13.1-17.1-9.1-7.7-17.3-7.4-25.9 0.8-12.4 11.8-19.4 27.2-27.2 41.9-15.2 28.6-28.2 58.4-43.6 87-7.7 15.2-16.4 30-24.2 45.2-8.1 13.1-15.1 26.9-22.3 40.6-9.7 18.5-20.1 36.7-28.7 55.8-24.8 49.9-45.2 101.3-53.8 156.7-0.5 3.9 0.2 8.1-2.5 11.5q0 0 0 0z"/>
			<path id="Layer" class="s8" d="m525 256.1c-0.3 3 1.6 5.2 2.8 7.5 14.2 27.7 28.2 55.5 39.2 84.6 10.1 26.6 18.1 53.6 22.4 81.7 0.5 3.2 1.4 6.3 1.4 9.6 0 5.2 0.1 5.2-5.9 5.6-2.1-2.2-2.2-5-2.5-7.6-1.7-14.8-4.5-29.3-7.7-43.7-7.3-33.2-20.3-64.3-34.6-94.9-12.8-27.3-26.6-54.3-42-80.3-1.4-2.3-2.9-4.7-2.5-7.6 1.7-3.2 3-1 4.1 0.4 1.6 2 1.7 5 4.5 6.1 2.7 3.7 4.8 7.7 6.7 11.7 0.7 4.2 3.2 7.5 5.2 11.1 0.6 0.4 1.3 0.7 1.3 1.7 2.4 4.8 4.4 9.9 7.7 14.3l-0.1-0.2z"/>
			<path id="Layer" class="s9" d="m504.2 217.5c-2 1.5-2.5-0.4-3.1-1.5-1.5-2.2-2-5-4.6-6.3-5.7-3.2-7.1-9.5-10.1-14.5-7.6-12.6-14.9-25.4-22.2-38.2-0.9-1.8-2-3.4-3.6-4.7-1.7-1.7-2.7-3.7-3.2-6-0.4-1.9-1.5-3.4-2.9-4.7-1.7-1.7-2.7-3.8-3.2-6.1-0.5-3-2-5.4-4.3-7.3-1.8-1.8-2.8-4.1-3.4-6.5-0.7-4.2-3.8-7.2-5.4-10.9-1-2.4-3-4.5-1.7-7.4q1.1-0.1 2.2-0.1c8.6 15.2 17 30.4 25.7 45.5 11.8 20.6 23.9 41 35.9 61.5 1.3 2.4 2.6 4.8 3.9 7.2z"/>
			<path id="Layer" class="s10" d="m1184.6 540.5c0.2 5.8-4.3 10.6-10.1 10.7-5.2 0.2-9.2-3.7-9.2-8.7 0.1-5.7 4.9-10.3 10.7-10.3 5 0.1 8.5 3.5 8.6 8.3z"/>
			<path id="Layer" class="s6" d="m525 256.3c-4.2-3.9-6.5-8.8-7.5-14.3 3.3 4.3 6.3 8.8 7.5 14.3z"/>
			<path id="Layer" class="s6" d="m516.1 240.3c-2.7-3.2-6.2-6.1-5.2-11.1 1.6 3.8 5 6.7 5.2 11.1z"/>
			<path id="Layer" class="s11" d="m151.7 496.1c1-2.5-3-5-0.1-7.5 3.8-1.6 7.8 0.1 11.6-1q25-0.1 49.9-0.3 0.6 1.4-0.7 2.2c-7.4 2.6-15.1 1-22.7 1.3-2 0-3.9-0.3-6-0.4 2.2 2.5 4.7 4.4 6.5 7 2.9 19 17.9 26.1 32.6 33.7 19.6 11.4 40.5 19.8 62.7 24.6 28.4 6.9 57.2 10.5 86.5 10.4 1.5 0 3 0.1 4.5-0.1 1.9-0.1 4.2 0.2 5.1-2.1 0.7-2.2-0.8-3.9-2.1-5.3-7.1-8.1-15-15.3-24.9-19.9-6.6-3.1-13.2-6.1-20.2-8-17.7-4.8-32.7-14.2-46.5-26q-1.7-1.8-2.2-4.3c0.2-2.5 0.3-5 3.1-6.3 8.3 1 16.4 2.3 24.6-2.2 3-1.7 3.9-2.9 4-5.8 0-9.5-0.1-19-0.1-28.4-0.2 7.5-0.4 15 0 22.5 0.4 9-4.9 12.9-13.1 14.3-7.8 1.4-15.6-2.5-17-9.9-2.2-11.4-2.8-23.1 0.3-34.7 4.4-0.4 3.7 3.2 3.9 5.4 0.6 5.5 0.2 10.9 0.3 18.2 3.6-18.3 8.4-34.5 12.6-50.9 3.1-12 6.6-14.2 18.4-10.9 34.8 10 68.6 7.6 101.3-7.9 5.5-2.6 11.1-5.3 16.4 0.6 2.2 2.9 2.6 6.4 3.1 9.8 1.8 12.5 4.7 24.9 5.2 37.6-0.5 2.8-2.5 4.8-4 7.1-4.2 6.9-5.9 14.3-3.8 22.2 3.2 11.7 13.7 16.7 26.8 13-8.1 1.4-15.6 0.3-21.4-5.9-6-6.4-4.7-14.4-3.7-22.1 0.5-3.1 1.7-6.4 6.2-6 2.5 3.4 2.9 7.4 3.1 11.4 0.2 3.9 1.9 5.3 5.7 4.8 18.3-2.8 36.4-6 52.2-16.4 5.2 2.1 3.6 6.4 2.9 10.1-0.7 3.6-4 3.9-7.1 4.1-4.7 0.4-9.4-0.2-14 1.7-4.5 1.9-7.7 4.8-7.1 10 0.6 5.4 4.1 8.4 9.2 9.4 3.5 0.7 7.1 0.7 10.2-1.1 4.7-2.5 9.2-3.6 13.7 0.1-6.2-11.5-3.7-23.3-2.7-35 6.3-4.2 11-11.1 19.2-12.4 0 12.2 0.2 24.4 0 36.6-0.1 3.9 1.2 5.2 5.1 5.1 10.7-0.1 21.4 0.2 32.1 0.3 1.7 1.8 1.2 3.6-0.1 5.4-43.5 42.1-96.7 63.6-155.7 72.9-7-1.9-13.6 1.9-20.6 1.4-3-0.2-2.8 2.1-2.1 4.2 2.1 6.9 3.8 13.9 2.4 21.2-0.8 4.1 2.1 3.9 4.6 3.5 6.9-1.1 13.8-1.9 20.6-3.8 8.9-1.7 17.5-5 26.5-6.5 2.9 0.3 6.7-0.6 7.9 2.9 1.2 3.7-2 5.9-4.6 7.8-12.9 9.9-27.8 15.7-43.6 19-9.6 2-19.4 4.4-29.5 3.2-2.7-4.7 2-5.9 3.9-8.3 1.7-2.1 4.9-3.8 3.5-6.8-1.1-2.5-4.4-1.8-6.8-1.7-22.8 0.5-45.4-0.5-67.7-5.7-33.7-7.7-64.4-22.1-92.8-41.7-1.2-0.9-2.3-2-4.4-2.5-0.1 2.7 1.7 4.4 3 6.2 17 23.3 37.9 42.1 64.4 54.3 3.1 1.4 6.8 2.3 7.9 6.3 0.2 8.2 3.3 16.2 1.3 24.5-2.2 4.5-5.7 2-8.3 1.1-6.2-2.2-12-5.4-17.7-8.6 6.7 3.8 13.4 7.3 20.6 9.8 2.5 0.9 5.3 1.7 6.7 4.4 1.6 4.5 3.2 9 1.3 13.8-2.6 3-5.5 1.6-8.2 0.4-41.8-17.8-75.5-45.1-99.3-84.2-12.3-20.4-20-42.3-24.5-65.5-1.4-7.2-2.9-14.3-8.3-19.7q0 0 0 0z"/>
			<path id="Layer" class="s12" d="m534.2 446.8c-3.7 2.8-7.4 5.6-11 8.4-2.1 1.7-4.3 3.2-7.1 3.5-1-0.1-1.9-0.5-2.6-1.3-6.4-8.5-14.6-8.3-23.4-4.6 5-1.1 10-2.4 14.9-0.1 3.1 1.4 6.8 2.6 5.1 7.4-0.4 4.5-4.3 5.3-7.3 6.6-11.1 4.5-22.5 7.7-34.2 10.1-4.7 1-9.4 1.2-14 1.7-3 0.4-4.7-0.4-4.5-3.2 0.3-5.3-1.7-10.3-1.8-15.5 0.6-5.3 4.8-6.4 9-7.2 4.1-0.8 8.3-0.2 13.1 0.4-5.4-3.2-10.4-3.1-15.6-1.6-2.5 0.8-5 2.6-7.8 1.3-1.2-8.7-2.3-17.5-3.6-26.2-1.2-7.3-2.7-14.5-4-21.7-3.7-4.9-2.7-11-4.4-16.5-0.7-4.4-2-8.7-2.2-13.2-0.6-6.1-3.9-11.9-1.3-18.1 4.7-1.1 8.7 2.8 14.2 1.1 14-4.4 23.1-13 27.8-26.8 7.3-21.4 9.3-43.2 5.2-65.5-1.7-9.1-3.2-18.2-5.3-27.2-0.7-2.8-1.8-5.7-0.2-8.7 4.7-1.8 4.5 2.7 5.5 4.8 6.3 13.3 11.6 27.1 17.7 40.4q23.3 50.7 46.5 101.4c5.4 11.8 11 23.5 16.2 35.3 2.3 5.2 2 9.4-1.9 13.7-6.3 7-11.7 15-20.2 19.8q-0.7 0.5-1.3 1.1-0.8 0.2-1.6 0.4 0 0 0.1 0z"/>
			<path id="Layer" class="s13" d="m151.7 496.1c3.4 0 4.8 1.5 6.2 4.9 4.1 10.5 5.2 21.6 8 32.3 6.9 25.7 19.4 48.3 35.7 69 18.2 23.1 40.9 40.7 66.9 53.9 7.2 3.7 14.3 8.1 22.5 9.4 11.6 2.1 22.6 6.2 34.2 8.2 69 12.4 131.1-3.3 185.2-47.5 40.8-33.4 65-77.2 72.1-129.8 0.4-2.7 0.3-5.6 2.4-7.8 2.5-0.5 5.1-0.5 7.7 0-1.2 35.6-10.9 68.8-29.8 99-29.5 47.2-71.7 78.3-124.3 95.6-25.5 8.4-51.8 11.8-78.8 11.1-50.1-1.3-94.6-17.8-133.5-49.3-24.7-19.9-44-44-57-73.1-8.4-18.9-13.8-38.4-16.4-58.8-0.7-5.7-1.8-11.4-1.1-17.1z"/>
			<path id="Layer" class="s14" d="m584.8 488.7c-0.4 18.1-5 35.4-11.2 52.2-5.1 14-11.4 27.6-19.8 40.1-18.1 26.8-40.7 49-68.3 65.9-22.7 13.9-47.2 23.6-73.3 28.8-9.9 1.9-20 3.8-30.3 3.5-5.2-0.2-10.2 1.7-15.5 1.4-23.4-1.5-46.5-4.1-68.8-11.7-2.4-0.8-4.9-1.1-6.5-3.3 0.7-5-1.5-9.7-1.7-14.6 4.5-2.1 8.2 1.1 12 2.3 56.3 17.6 111 13.8 163.6-12.7 40.8-20.5 72.5-50.9 91.9-93 5.4-11.5 9.6-23.5 12.5-36 0.8-3.6 1.3-7.3 3.2-10.7 3.2-4.4 5.7-9.5 10.8-12.2q0.7-0.3 1.4 0z"/>
			<path id="Layer" class="s15" d="m574.4 500.7c-1.8 4.4-2.2 9.1-3.4 13.7-7.7 28.2-20.2 53.8-39.2 76.4-19.8 23.4-43.9 41.1-71.3 54.4-19.2 9.3-39.5 15.2-60.4 18.6-16.6 2.6-33.4 2.7-50 1.5-20.9-1.5-41.2-6.4-60.7-14.3-10.7-4.1-20.8-9.3-30.2-16 9.7 3.4 18.6 8.9 28.8 11 4.4-1.4 8.3 1 12.3 2 62.2 16.1 120.9 7.5 175.6-25.7 34.5-20.9 60.9-49.8 78.6-86.3 3-6.3 4.8-13.1 7.9-19.3 3.6-7.5 3.3-16.2 7.6-23.4 1.5-1.2 1.3-2.9 1.3-4.5q2.3-0.7 4.5-0.1c2.7 4.4-0.4 8.1-1.4 12q0 0 0 0z"/>
			<path id="Layer" class="s13" d="m574.4 500.7c-0.3-4.1 0.2-8.1 1.5-12 2.5-0.5 5-0.5 7.5 0-2.7 4.2-5.6 8.3-9 12z"/>
			<path id="Layer" class="s16" d="m1082.8 252.2c0.2 14.8-2.5 28.9-10.2 41.6-14.8 24.6-37.3 34.2-65.3 32.3-17.9-1.2-33.3-7.9-45.5-21.5-10.2-11.3-16-24.7-17.9-39.6-2.6-20.4-0.1-39.9 11.7-57.4 12.5-18.7 30.2-28.5 52.7-29.5 14.3-0.7 28 1 40.5 8.2 18 10.5 28 26.5 32.3 46.5 1.4 6.4 1.7 12.9 1.7 19.4q0 0 0 0z"/>
			<path id="Layer" class="s16" d="m767.9 122c17.6 42 35.1 84 52.9 126.7h-107.3c17.7-42.5 35.3-84.6 52.8-126.6q0.8 0 1.6-0.1z"/>
			<path id="Layer" class="s16" d="m1478.1 178c38.1-1.3 63.4 27.2 67.9 61.4 2.6 19.3 0.6 37.8-8.6 55.2-13.9 26.5-39.7 37.3-68.9 34.4-34.1-3.5-58.6-32.7-60.9-66.3-1-14.2 0-28 5.2-41.2 9.9-25.4 34-44.7 65.3-43.5q0 0 0 0z"/>
			<path id="Layer" class="s16" d="m1207 623.5c1.2-14.2 5.8-27.3 16.6-37.7 6.6-6.3 14.4-9.6 23.7-8.9 2.9 0.2 4.1 1.4 3.3 4.3-4.4 16-8.7 32.2-19 45.9-2.7 3.6-5.7 6.9-9.7 9.1-7 4.1-12.6 1.7-14.4-6.4-0.4-1.9-0.4-3.9-0.5-6.3z"/>
			<path id="Layer" class="s17" d="m222 532.2c-10.2-3-17.7-10.6-26.6-15.8-1.4-0.8-1.6-2.3-2.1-3.8-1.4-5-2.8-9.9-4.3-14.9-1.1-2.8-4.2-5.3-1.4-8.8q12.7-0.1 25.4-0.3c1.4-11.9 1.3-23.9 0.1-35.9q-26.9-0.1-53.8-0.3c-3-6-0.6-12.2 0.1-18.1 5.3-44.5 20.3-86 38.4-126.6 3.6-8.1 8.2-15.9 10.7-24.5 8.9-19.8 19.4-38.7 29.5-57.9 5.6-10.6 11.4-21.1 17.1-31.6 1.3-2.3 2.1-5 4.4-6.8 2.5 3.4 0 6.2-1.4 8.9-6.4 12.6-13.2 25-19.5 37.7-3.7 7.3-5.9 14.2-0.5 21.7 1.1 1.5 1.2 3.7 1.4 5.7-3.9 12.6-10.4 24.1-15.5 36.2-3.8 9.2-8.2 18.2-11.3 27.6-11.6 31.1-21.2 62.7-25.3 95.8-0.1 0.7-0.3 1.4-0.3 2.2-1.8 15.3 1.4 18.3 16.4 16.5 7.9-1 15.9-1.6 23.8-1.9 6.5-0.3 10.5-2.2 11.1-9.1 0.1-0.9 0.8-1.8 1.4-2.5 1.1-0.3 2.2-0.1 2.5 0.9 2.2 7.1 5.7 14 4.5 21.8-2 3.1-5.4 5.4-8.4 5.6-5.5 0.2-5.1 3.4-5.1 6.9-0.1 18.6-0.1 37.2 0 55.8 0.4 1.1 0.2 3 2.4 1.7 0.3-0.5 0.5-1.1 0.7-1.7 0.8-6.6-1.1-13.4 1.3-19.9 0.7-1.2 2-1.5 3.2-1.3 11.3 1.8 20-2.6 26.8-11.4 4.6-1.2 6.5 2.6 8.9 5 3.7 3.6 8 6.6 10 11.5 1.2 0.7 1.4 1.8 1.5 3 2.8 3.7 2.3 7.7 1.3 11.8-0.4 1.2-1.2 2.2-1.6 3.4-4.7 13.3-6.8 15-20.6 15.5-6.9 0.3-13.8 1.2-20.7 1.8-8.7 0.9-16.7-0.1-24.5-3.9z"/>
			<path id="Layer" class="s18" d="m208.5 283.2c2.1 1.6 0.6 3.1-0.1 4.6-10.5 21.7-19.8 44-27.7 66.8-7.6 21.8-13.9 44-17.3 66.9-1.6 10.3-2.3 20.7-4.1 30.9q-3 0.1-6 0.1c0.2-16.8 4.2-33 8.2-49.2 8.1-32.5 20.1-63.7 34.1-94.1 4-8.8 7.4-17.9 12.9-26q0 0 0 0z"/>
			<path id="Layer" class="s19" d="m213.1 452.7c1.1 0.8 1.5 2 1.5 3.2v29.5c0 1.3-0.5 2.4-1.5 3.2q0-0.6 0-1.3c0.9-11.5 0.7-23 0-34.6z"/>
			<path id="Layer" class="s13" d="m163.2 487.6c-3.7 1.9-7.7 1.2-11.6 1q-0.1-0.6-0.1-1.1c3.9-0.2 7.8-0.5 11.7 0.1z"/>
			<path id="Layer" class="s16" d="m883.5 604.3c-11.4 0-11.9-0.8-6.4-10.8 3.5-6.5 8.1-11.9 14.5-15.7 5.7-3.3 12.4-3.4 15.4-0.5 3.1 2.9 3 9.5-0.2 15.4-4.2 7.8-11.8 11.6-23.3 11.6z"/>
			<path id="Layer" class="s20" d="m537 445.2c0.9-2.4 3-4 4.8-5.6 5.8-5.1 10.2-11.6 15.6-17.1 2.5-2.6 2.2-5.1 0.8-8.2-5-10.8-9.8-21.7-14.8-32.6-13.2-28.7-26.1-57.5-39.7-86-10.4-22-19.1-44.6-29.7-66.5-2.6-0.7-3.2-2.9-4.1-5-10-25-19.4-50.2-29.1-75.4-0.8-2.1-1.4-4.3-1-6.6 0.8-2.6 2.4-4.1 5.3-3.5 5.5 5.6 6.8 13.2 9.5 20 16.1 41.7 34 82.5 53.5 122.7 18.4 37.8 37 75.6 55.9 113.3 1.1 2.2 1.9 4.6 3.8 6.5 4.2-1.4 2.7-8.3 8.1-8.5 2.8 6.7 3.7 13.7 5 20.7 2 10.5 3.6 21 4 31.7-16 0.5-31.9 0.7-47.9 0.1z"/>
			<path id="Layer" class="s21" d="m441 142.4c3.7 12.9 9.3 25 13.8 37.6 6 16.5 12.8 32.8 19.2 49.2 0.4 9 3.5 17.5 5 26.3 2.4 13.9 5.1 27.9 3.8 42.1-1.6 16.1-4.6 32-13 46.3-2.5 4.4-6 7.9-10.4 10.4-3.8 2-7.8 3.4-11.7 5.1-5.9 2.5-11.3 3.2-15.7-2.7-3.7-2.3-3.6-6.4-4.2-9.9-7.8-45.3-17-90.3-24.9-135.6-0.4-1.9-0.6-3.9-1.4-5.8-2.5-0.5-2.8 1.7-3.6 3-14.2 23-27.8 46.2-35.7 72.3-1.4 4.8-3.6 9.3-6.3 13.5-7.8 12-15.2 24.2-20.6 37.3-6.6 16-19.2 21.2-34.8 22.6-1.5 0.2-3-0.1-4.4 0.3-15.4 4.4-23.6-3.2-29.5-19.2-3.7-10.3-5.4-21.2-6.1-32.2-0.2-2.8-0.2-5.5-0.9-8.2-2.7-10.5-2.9-10.7-13.2-9.4-2.5-1.9-1.7-4.5-1.1-6.9 5.8-23 12.4-45.7 19.9-64.1-5.6 11.9-14.8 26.4-22.3 41.8-0.9 2-2 4.1-4.5 4.7-1.7-3.2-3.2-6.6-4.9-9.8-2.4-4.4-1.2-9.5 1.2-14.2 7.5-14.1 14.7-28.3 22-42.4 1.2-2.4 3-4.7 2.8-7.6 7.3-15.2 15.7-29.9 24-44.6 2.5-3.2 4.1-6.8 5.6-10.5 2.9-6.4 6.9-11.3 13.7-13.9 5.1-1.9 8-6.6 11-10.9 6.2-8.7 10.8-9.8 21.1-5.1 0.3 3.4-2 5.6-3.9 7.9-14.4 18-22.6 38.6-25.8 61.3-0.9 6.8-4 11.2-10.9 12.2-4.7 0.7-7.5 3.4-9.2 7.8-6 14.8-10.1 30.3-13.6 45.9-1.7 7.7 1.4 11 9.5 11.3 15.5 0.4 28.1-8.2 32.8-23.3 2.1-6.8 5.8-11.1 12.2-14.2 10.3-4.8 15.8-14.3 20.6-23.9 9-18.3 12.4-37.8 11.7-58.1-0.2-3.8-0.8-7.5 0.7-11.1 1.6-2.2 3.4-1.2 4.1 0.4 4.9 10.3 14.6 16.8 20.4 26.4 2.1 3.5 3.7 7.5 7.8 10.5 2.2-7.3 7.7-10.4 13.6-13.3 6.5-3.2 12.1-7.9 17.5-12.6 2.8-2.4 5.4-5.2 9.6-5.2 4.6 3.7 5.2 9.8 8.1 14.5 0.7 1.2-0.1 2.8 0.8 4z"/>
			<path id="Layer" class="s22" d="m334.6 102c-2.5-0.1-5.2 0.3-7.4-0.4-4.8-1.7-7.6 0.6-10.2 3.9-1.2 1.6-2.2 3.4-3.3 5-3.1 4.6-6.6 8.6-12.3 10.3-5 1.5-8.3 4.9-10.6 9.8-1.9 4.1-2.9 9-7.3 11.7 0.2-0.7 0.2-1.5 0.6-2.1 17.8-33.2 32.9-67.8 51-100.8 5-9 10.3-17.7 17.4-25.2 10.9-11.6 20.7-11.7 32.1-0.7 7 7 11.6 15.6 16.6 23.9 11.3 19.1 21.3 39 31.5 58.7 1.3 2.4 2.6 4.8 3.8 7.3 2.1 6.4 7.2 11.3 8.7 18-2.8-0.1-6.3-3.5-8 2.1-0.8 2.4-3.4 1-5.2 0.9-5.9 2.8-10.1 8-15.3 11.8-4.6 3.3-9.3 6.6-14.5 9-4.1 2-8.2 3.8-8.2 9.5 0 1.3-0.7 3.1-2.4 3.4-1.8 0.4-2.4-1.2-3.2-2.5-4-6.3-8.1-12.4-12.7-18.3-1.9-2.3-3.7-4.6-5.8-6.8-3.5-3.5-8-6.5-8.1-12.3 0-0.5-1.1-1-1.7-1.4-2.5-1.7-2.8-4.6-3.7-7.1-3.9-10.1-7.4-11.8-17.5-8.1-1.4 0.5-2.8 1.1-4.3 0.4z"/>
			<path id="Layer" class="s12" d="m432 124.4c1.5-1.6 4.6-0.7 5-4.7 0.5-4.1 3.1-4 6-0.3 0.6 0.8 1.5 1.3 2.2 2 0.7 2.2 1.7 4.3 3.2 6.1 1.8 2.2 2.8 4.9 4.3 7.3 0.7 2.3 1.7 4.3 3.2 6.1 1.1 1.4 2.1 2.8 2.8 4.4 0.6 2.3 1.7 4.3 3.2 6.1 1.2 1.4 1.9 3 3 4.4 11.2 17.5 21.1 35.9 31.6 53.8 1.7 7.2 6.4 12.9 9.8 19.2 24.3 44.2 47.2 89.1 62.8 137.2 2.9 8.7 6.2 17.4 6.8 26.7-3.7 3.5-3.3 9.5-8 12.5-1.9-0.9-2.2-3-3.1-4.6-14.5-29-29.3-57.8-43.3-87-8.1-16.9-16.9-33.3-24.5-50.4-10.1-22.4-20.4-44.8-29.7-67.5-7.3-17.7-14.1-35.6-21.1-53.4-0.4-0.9-0.5-1.9-0.8-2.8-2-1.8-3.9-2.9-6-0.1-3.8-4.3-5.2-9.9-7.4-15z"/>
			<path id="Layer" class="s22" d="m452.7 134.9c-2.7-1.8-3.7-4.5-4.3-7.4 2.8 1.6 3.9 4.3 4.3 7.4z"/>
			<path id="Layer" class="s22" d="m464.9 155.8c-2-0.8-2.9-2.3-3-4.3 2.1 0.7 2.7 2.4 3 4.3z"/>
			<path id="Layer" class="s22" d="m458.7 145.3q-2.7-1.4-2.8-4.4c2 0.8 2.8 2.4 2.8 4.4z"/>
			<path id="Layer" class="s23" d="m246.1 284.9c1.6-0.2 2.8-1 4-1.9 4.1-3 7.2-2.6 8.5 1.9 1.9 5.9 3.7 11.6 4.2 18 1 14.9 2.5 29.8 11.4 42.7 5.1 7.4 8.7 8.3 17.7 7.3 9.2-0.9 18.1-2.7 27-5 3-0.7 5-1.9 6.5-4.4 2.3-3.8 5.1-7.5 7.1-11.4 6.9-14.1 14.5-27.8 22.9-41.2 5.4-8.5 7.1-18.6 10.9-27.8 6.8-16.7 15.6-32.3 24.9-47.7 2.6-4.2 5.1-8.5 7.7-12.8 0.7-1.2 1.3-2.9 3.2-2.5 1.6 0.3 1.2 1.9 1.4 3.1 3 16.3 5.9 32.7 8.9 49 3.8 20.2 7.9 40.4 11.6 60.6q3.5 18.3 6.4 36.7c0.3 2.5 1.4 4.7 1.6 7.2 0.3 6.2 1.8 12.1 2.8 18.1-5.2 1-9.2 3.9-13.2 7.5-10.7 9.4-22.6 17.2-35.8 22.6-2.6 1-5.2 1.9-7.3 3.7 14.5 6.2 47-5.2 58-20.3 1.9 5.3 3.2 10.8 2.9 16.5-4.9-3.5-9.7-1.8-14.4 0.6-23 11.8-47.6 16-73 14.1-11.1-0.8-22.2-2.7-32.8-6.6-7.2-2.6-9.6-1.8-11.4 5.6-3.3 13.7-8.4 27-10.8 41-1.1 6.6-3 12.9-5.6 19.2-2.7-1.3-1.7-3.2-1.7-4.7-0.2-6.3-0.1-12.5-0.1-18.8-0.1-1.9 0.4-4-1.6-5.4-2.7 2.1-3.6 5-3.9 8.2-0.2 2.7 0 5.4-2.2 7.5-3.6 1.8-7.2 1.6-10.9 0.5-0.9-0.5-1.9-1-2.3-1.9-3.9-9.2-11.1-13.6-20.8-14.6-0.7 0-1.3-0.7-1.8-1.2-1.6-7.6-3.5-15.2-6-22.6-4-2.7-4-7.2-4.7-11.3-4.8-25.4-4.7-50.9-1.5-76.4 0.4-3.5 0.7-6.9 1.1-10.4 1.7-12.7 4.5-25.2 7.5-37.6 0.5-2.2 1.2-4.3 3.7-5.1z"/>
			<path id="Layer" class="s24" d="m564 517.2c-12.1 36.9-34.8 66.3-64.3 90.8-24 19.9-51.3 33.3-81.2 41.6-13.8 3.8-28 6.4-42.5 7.2-7.7 0.5-15.4 1.6-23.1 1.1-22.1-1.3-44-3.9-64.9-11.9 0.9-9.1-2.4-17.8-1.5-26.8 3.7-1.7 6.8 0.3 10.1 1.3 24.6 7.5 49.2 9.4 73.5-1.2 2-0.9 4.2-1.9 6.3-0.2 19.3-2 38.4-4.9 56.2-13 6.4-3 12.1-6.9 17.8-10.9 1.5-1 3.3-2.3 3.4-5.1-2-1.6-4.5-0.7-6.8-1 0-3.8 3.5-3.8 5.8-4.6 39.7-13.3 74.2-35 103.7-64.8 2-2 3.7-5 7.4-3.8 0.1 0 0.2 0.4 0.2 0.6 0 0.2-0.1 0.4-0.1 0.7z"/>
			<path id="Layer" class="s19" d="m376.5 619.1c-5.6 1.4-10.4 4.6-16 6.1-10.8 3-21.6 3.6-32.8 3.2-14.5-0.5-27.8-4.4-41.1-9.2-8.7-4.9-18-8.4-26.3-13.9-19.2-12.9-35.4-28.9-48.4-48-1.4-2.1-4.5-4.7-2-7 2.6-2.4 4.7 1.2 6.8 2.7q27.4 19.6 58.9 31.7c13.7 5.3 27.5 9.9 42.1 12.3 14 2.3 27.9 4.4 42.1 4.2 7.8-0.1 15.5-0.2 23.2 0 5.4 0.2 6.5 2.5 3.6 7.2-1.2 1.8-2.3 3.8-4.4 4.9-2.4 1.3-4.4 3.3-5.7 5.8z"/>
			<path id="Layer" class="s25" d="m564 517.2c-3.5-1.5-4.2 2-5.6 3.5-13.1 13.4-27.6 25.1-43.2 35.4-19 12.6-39.2 22.7-60.8 29.9-2.6 0.8-5.4 1-7.4 3.1-6.9 1.7-13.8 3.3-20.5 5.1-2.2 0.6-4.3 0.9-6.5 1-9.8 1.4-12.2-0.5-12.7-10-0.5-8.1 0.4-15.5 8.2-20 37.3-5.6 72.5-17.2 105.4-35.7 16.3-9.2 31.7-19.8 45-33.1 1.2-1.2 2.3-2.6 4.1-3.1-0.7 8.3-2.5 16.3-6 23.9z"/>
			<path id="Layer" class="s19" d="m288 515.7q0.1-6.1 0.1-12.1c5.9 2.3 10 7.1 15.3 10.4 9.7 6.1 19.7 11.2 30.8 14.5 17.6 5.3 34 13 46.1 27.7 0.6 0.8 1.4 1.3 2 2.2 1.6 2.1 3.7 4.2 2.1 7.3-1.4 2.9-4.1 2.3-6.5 2.4-14.9 1-29.9-0.4-44.7-1.8-14.7-1.4-29.5-3.5-43.8-7.9-1.4-0.5-2.9-0.6-4.3-0.8-2.3-2.4-2.4-5.4-2.3-8.4 0.4-11.4 1.2-22.7 5.2-33.5z"/>
			<path id="Layer" class="s23" d="m288 515.7c-1.8 13.9-3.2 27.8-3 41.9-6-0.4-11.6-2.5-17.2-4.4-12.4-4.4-24.7-9-36.5-14.9-3.4-1.7-6.6-3.5-9.3-6.1 0.8 0 1.5-0.2 2.2 0 12.3 3.3 24.5 2 36.7 0.1 5.2-0.8 10.4 0 15.6-1.3 5.3-1.2 7.6-4.4 8.4-9.1 0.4-2.5 0.3-5 3.1-6.2z"/>
			<path id="Layer" class="s26" d="m510.1 460.1c-2.9-5.6-6-7.5-12.4-6.7-3.1 0.3-6.4 0.5-9.4 2.1-0.8 0.4-2 0.8-2.6-0.3-0.7-1.2 0-2.3 0.6-3.4 0.1-0.2 0.4-0.3 0.6-0.4 9.1-6.7 23.8-3 29.2 7.3 0.1 8.5 0.2 16.9 0.3 25.4 0 4.1-0.4 8.3 5.6 8.3 0.8 0 1.1 0.9 1.2 1.6 0.1 1.1-0.4 1.9-1.5 2.2-3.3 1.2-6.5 1.1-8.7-1.9-1.5-2.1-2.2-1.2-3.9-0.1-6 3.7-12.5 4.6-19.3 2.2-5.1-1.8-7.5-5.6-7.8-10.7-0.4-5.1 2.6-9.6 7.5-11.7 4.3-1.8 8.8-1.7 13.2-1.7 9.4 0 9.4 0 8.5-9.5-0.1-0.9-0.7-1.8-1.1-2.7q0 0 0 0z"/>
			<path id="Layer" class="s24" d="m415.5 565.2c-0.3 0.9-0.3 2.2-0.9 2.7-7.6 5.8-4.8 14.1-5 21.5 0 3 2.1 5 5.2 5.6 1.7 0.3 3.4 0.1 5.2 0.2-8.6 3.2-17.5 4.3-26.3 4.5-2-1.9-1-3.8-0.6-5.2 1.8-8.1 0-15.6-3-23-1.6-4.3-0.2-6.5 4-5.6 4.1 0.8 7.6 1 11.3-1.4 3.2-2 6.6 1.4 10.1 0.7z"/>
			<path id="Layer" class="s27" d="m397.3 441.1c0 2.1 0.2 3.4 0 4.6-0.4 3.5 1.3 4.3 4.3 4.1 2.5-0.2 5-0.1 7.5 0 1.5 0 3.1 0 3.2 2.1 0.2 2.3-1.5 2.3-2.9 2.3-2.8 0-5.5 0.2-8.3 0-2.9-0.2-3.9 1-3.8 3.8 0.1 10.3 0 20.5 0 30.7q0 2.6 0 5.2c0 1.6-0.9 2.2-2.3 2.3-1.6 0-3.1-0.1-3.2-2.2-0.1-2.7-0.1-5.5-0.1-8.2 0-9-0.1-18 0.1-27 0.1-3.5-0.8-5.2-4.6-4.6-0.9 0.1-2 0-2.9-0.1-1.1-0.1-1.8-0.7-1.8-1.9-0.1-1.1 0.3-1.9 1.4-2.3 0.2-0.1 0.5 0 0.7-0.1 2.3-0.5 5.6 1.3 6.8-1.3 1-2.1 0.3-4.9 0.3-7.4 0.1-3.8 0.6-7.5 2.1-11 3.1-6.8 11.6-10.6 18.9-8.6 1.2 0.3 2.5 0.8 2.9 2 0.3 0.9 0.1 2-0.2 2.9-0.2 0.8-1.2 0.9-1.8 0.6-4.6-1.9-8.9-1.6-12.6 1.8-3.8 3.5-3.9 8.4-3.7 12.3z"/>
			<path id="Layer" class="s28" d="m282.2 464.7c0.9-3.4 0.5-6.9 0.4-10.3-0.2-4.2 1.8-5.2 5.4-4.6 0 9.4 0.1 18.9 0.1 28.4 0 5.5 0.8 10.7 6.5 13.2 6.1 2.6 12.1 1.5 17.8-1.9 2.4-1.4 2.2-3.6 2.2-5.9v-26.2c0-1.5 0-2.9 0-4.4 0-2.1 0.6-3.4 2.9-3.3 2.3 0 2.2 1.6 2.2 3q0 20.2 0 40.4c0 1.6-0.1 2.9-2.2 3.1-2.7 0.1-2.5-1.9-2.8-3.7-8.6 6.5-17.5 6.6-26.7 2-4-0.9-5.4-4.2-6.3-7.5-1.8-7.5-3.9-15 0.5-22.3q0 0 0 0z"/>
			<path id="Layer" class="s29" d="m447 452.7c7.4-4.3 15.2-5.7 23.5-2.7 3 1.1 4.5 3 2.7 6.2-8.9-2.9-17.8-5.5-24.9 3.6-6.2 7-5.8 15-3.1 23.1 2.5 7.1 9.6 10.4 18.3 9.7 2.7-0.2 5.3-1.2 7.9-1.9 1-0.3 2.1-0.8 2.7 0.2 0.6 1.2 0.1 2.4-0.7 3.4-0.5 0.5-1.2 0.8-1.9 1.1-14.6 5.9-33 0.7-33.5-19.9-0.3-9 3-16.4 9-22.8z"/>
			<path id="Layer" class="s19" d="m282.2 464.7c1 4.9 0.4 9.9 0.4 14.9 0.1 5.6 1.3 10.8 5.4 14.9 0.3 2.3-0.4 4.2-1.4 6.1-6.8-4.6-11.3-11.6-17.9-16.4-1.7-6.7-2.2-13.3 1.6-19.5q5.9 0 11.9 0z"/>
			<path id="Layer" class="s30" d="m342.9 454.7c2.4-5 7.1-5 11.4-6 1.3-0.3 2.5 0 2.8 1.6 0.3 1.6 0.2 3.1-1.7 3.5-2.4 0.5-4.9 0.7-7.3 1.6-4.2 1.6-6.2 4.1-6 8.9 0.4 8.2 0.1 16.4 0.1 24.7 0 1.5 0 3 0 4.5 0 1.8-0.7 2.7-2.6 2.7-2-0.1-2.6-1.2-2.6-2.9q0-20.2 0.1-40.4c0-1.5 0.3-2.9 2.4-3.1 3.7-0.4 1.6 3.4 3.4 4.9z"/>
			<path id="Layer" class="s31" d="m419.8 473.7c0-6 0-12 0-17.9 0-1.5 0-3.1 0.4-4.5 0.3-1.4 1.7-1.6 3-1.4 1.2 0.1 1.6 0.9 1.7 2q0.1 1.1 0.1 2.2 0 18.7 0 37.3c0 0.5 0 1 0 1.5 0.1 2.1-0.5 3.4-2.9 3.2-2.1-0.1-2.3-1.4-2.3-3v-19.4z"/>
			<path id="Layer" class="s32" d="m372.3 473.5c0 6.5 0 13 0.1 19.5 0 2-0.6 3.3-3 3.1-2-0.1-2.2-1.5-2.2-3q0-19.8 0-39.6c0-1.9 0.3-3.6 2.7-3.7 2.7-0.1 2.4 1.9 2.4 3.6 0.1 6.7 0 13.4 0 20.1z"/>
			<path id="Layer" class="s33" d="m369.8 437.5c-2.8-0.7-4.3-2.1-3.8-4.8 0.4-2.5 2.4-2.9 4.5-2.7 2.3 0.2 3.5 1.6 3.2 4-0.4 2.4-2.1 3.1-3.9 3.5q0 0 0 0z"/>
			<path id="Layer" class="s34" d="m426.4 433.2c-0.1 2.4-1.3 4-3.6 4.1-2.5 0.2-4.2-1.2-4.3-3.9 0-2.5 1.8-3.4 3.9-3.5 2.2 0 3.9 0.9 4 3.3z"/>
			<path id="Layer" class="s19" d="m187.6 488.9c-0.4 3.1 2 5.7 1.4 8.8-3.2-2.1-5.7-4.9-8.2-8 2.6-1.5 4.7-0.7 6.8-0.8z"/>
			<path id="Layer" class="s11" d="m436.5 388.3c0 4.3-1.9 7.3-5.7 9.7-15.2 9.5-31.3 15-49.4 14.2-2.5-0.1-5-0.1-7-2.5 1.8-3.7 5.6-4.7 9-6 15.3-5.9 28.7-14.8 40.4-26.2 3.5-3.5 6.6-4.8 11-2.7-0.2 4.6 2.4 8.8 1.7 13.5z"/>
			<path id="Layer" class="s35" d="m237 326.8c0.2 8.9-1.7 17.7-2.4 26.5-0.7 8.7-0.5 17.4-0.5 26.1 0 15.7 2.5 31.1 5.9 46.3 0 2 0.2 4 0 6-0.6 5.4-2.8 7.2-8.2 7.5-10.7 0.6-21.4 1.1-31.9 2.9-1.2 0.2-2.5 0.1-3.7 0.1-8.9 0.1-11.5-2.3-11.5-11.4-0.1-13.8 2.8-27.1 5.8-40.4 5-21.9 11.3-43.3 19.5-64.2 0.3-1 0.7-1.9 1.5-2.5 5.2 4.6 11.2 2.5 17 2.4 2.9-0.1 5.9-1.7 8.5 0.6z"/>
			<path id="Layer" class="s36" d="m237 326.8c-6.3 0.8-12.7 1.8-19 2.6-4.1 0.5-5.8-2.1-6.5-5.7 1.1-8.3 5.6-15.3 8.7-22.8 5.6-13.5 12.1-26.7 18.2-40 9.4-19.1 20-37.5 30.6-57.3 1.5 4.4-0.5 6.9-1.5 9.5-8.6 22.7-15.3 46-21.4 69.5-0.1 0.7 0 1.5 0 2.3-3.3 10.8-5 22.1-7.5 33.1-0.6 2.9-1 5.8-1.6 8.7z"/>
			<path id="Layer" class="s37" d="m270.3 464.7c0.4 6.6 0.5 13.1-1.6 19.5-7.6 13.9-19.3 15.1-30.1 12.2-2.2 7.8 0.6 15.9-1.5 23.7l-0.1 0.1c-2 0.7-4.1 1.7-5.7-0.7q0.2-30.3 0.4-60.6c0-2 0-4 0-6 0-1.6 0.6-2.9 2.5-3.1 1.3-0.1 2.4 0.2 2.7 1.8 0.1 1 0.7 3.2 1.8 0.8 1.5-3.5 5.6-1.7 7.4-4.1 2.9 0.1 5.9-0.1 8.7 0.5 8.7 1.8 13.1 7.9 15.5 15.9z"/>
			<path id="Layer" class="s19" d="m237.1 520.1c0-6.7-0.1-13.4 0-20.1 0.1-1.3-0.7-3.1 1.5-3.6 0 5.9 0 11.8-0.1 17.6 0 2.2 0.6 4.5-1.5 6.1z"/>
			<path id="Layer" class="s19" d="m231.3 519.5c1.8 1 3.7 1.1 5.7 0.7-2.2 2.2-4.2 2.4-5.7-0.7z"/>
			<path id="Layer" class="s22" d="m439.4 139.4c0.3-1.6-0.6-3.4 1-5 2.4 1 3.9 2.7 5 5.1-2.2-0.1-3.5 1-4.4 2.9-1.2-0.7-1.5-1.8-1.6-3z"/>
			<path id="Layer" class="s38" d="m334.6 102q0.7-0.4 1.3-0.7c12-7.3 18.4-4.9 22.5 8.4 0.8 2.3 1.9 4.5 1.7 7.1-0.5 8.2 0.4 16.3 0 24.5-1 22.2-7.3 42.5-20.2 60.5-3.8 5.3-8.6 9.8-15 12.1-4.8 1.7-7.2 5.1-8.6 10.1-5.2 19.1-20.8 28.4-40.3 26.2-5.1-0.5-8.3-6.2-7.1-12.1 1.3-6 2.8-12.1 4.5-18 3.1-10.5 6.2-21 10.3-31.1 1.8-4.7 4.7-7.2 9.8-7.7 7-0.6 8.8-2.9 9.6-9.8 1.3-12.1 4.8-23.8 9.6-35 5.5-12.7 12.9-24.1 21.9-34.5z"/>
			<path id="Layer" class="s39" d="m377.2 36.4c6.2 1.1 9.1 5.1 11.8 8.6 4.7 6.1 9 12.5 12.8 19.2 6.7 12 12.7 24.3 19.1 36.4 1.6 3 1.7 4.8-1.4 7.4-8.1 6.7-16.7 12.4-25.5 18.1-0.8 0.5-1.7 1-3.7 0.2-4.7-29.3-9.3-59.2-13.1-89.9z"/>
			<path id="Layer" class="s40" d="m502.5 476.7c0.5 0 0.8-0.1 1 0 2.6 0.9 6.9-2.3 7.8 2.9 1.1 7.3-0.3 10.2-5.7 11.9-4.3 1.4-8.6 2.3-13.1 0.4-3.4-1.5-5.2-3.8-5.1-7.4 0.1-3.5 2.1-5.3 5.1-6.7 3.3-1.5 6.8-0.9 10-1.1z"/>
			<path id="Layer" class="s41" d="m237.1 473.6c0-3.8 0.3-7.5-0.1-11.2-0.4-4.5 2.1-6.5 5.6-7.6 9.1-2.8 18.8-1 21.8 11.4 1.3 5.8 0.9 11.4-1.5 16.8-3.9 8.7-14.9 12.5-23.3 8.2-1.7-0.9-2.6-2.1-2.5-4.2 0.1-4.4 0-8.9 0-13.4z"/>
		</g>
	</g>
</svg>